<svg xmlns="http://www.w3.org/2000/svg" viewBox="0 0 60 40">
  <rect width="60" height="40" fill="#012169" />

  <polygon points="0,0 8,0 60,32 60,40 52,40 0,8" fill="#FFFFFF" />
  <polygon points="60,0 52,0 0,32 0,40 8,40 60,8" fill="#FFFFFF" />

  <polygon points="0,0 5,0 60,35 60,40 55,40 0,5" fill="#C8102E" />
  <polygon points="60,0 55,0 0,35 0,40 5,40 60,5" fill="#C8102E" />

  <rect x="0" y="14" width="60" height="12" fill="#FFFFFF" />
  <rect x="24" y="0" width="12" height="40" fill="#FFFFFF" />

  <rect x="0" y="17" width="60" height="6" fill="#C8102E" />
  <rect x="27" y="0" width="6" height="40" fill="#C8102E" />
</svg>
